<?xml version="1.0" standalone="no"?>
<!DOCTYPE svg PUBLIC "-//W3C//DTD SVG 20010904//EN"
 "http://www.w3.org/TR/2001/REC-SVG-20010904/DTD/svg10.dtd">
<svg version="1.0" xmlns="http://www.w3.org/2000/svg"
 width="900.000000pt" height="980.000000pt" viewBox="0 0 900.000000 980.000000"
 preserveAspectRatio="xMidYMid meet">

<g transform="translate(0.000000,980.000000) scale(0.100000,-0.100000)"
fill="#000000" stroke="none">
<path d="M2905 9794 c-16 -2 -66 -9 -110 -15 -271 -35 -615 -147 -865 -281
-361 -192 -645 -447 -859 -769 -233 -351 -341 -725 -341 -1184 0 -528 128
-869 471 -1257 l42 -48 -67 -145 c-139 -302 -191 -472 -223 -727 -16 -125 -18
-223 -17 -763 2 -1594 90 -2719 284 -3644 91 -434 151 -602 279 -771 96 -127
199 -182 339 -182 73 0 91 4 147 31 108 54 185 160 229 316 42 148 56 269 106
885 84 1037 218 2366 255 2528 31 137 81 161 210 98 96 -46 172 -106 290 -227
128 -132 194 -221 250 -334 66 -133 71 -168 155 -1145 96 -1119 119 -1327 170
-1560 65 -301 245 -528 464 -586 208 -56 413 75 474 302 45 164 64 446 82
1199 25 1016 68 1473 147 1534 21 18 118 39 128 29 3 -2 16 -101 30 -219 65
-545 168 -1339 239 -1834 78 -548 216 -863 420 -964 93 -46 195 -65 260 -50
229 54 329 245 380 729 26 239 72 797 156 1900 44 575 84 1086 90 1137 5 51
10 99 10 107 0 11 18 16 68 21 144 14 231 27 325 51 364 92 692 278 883 504
218 257 363 588 435 995 27 153 37 546 20 815 -28 444 -116 1037 -186 1257
-50 158 -95 203 -201 203 -34 0 -74 -4 -88 -9 -31 -12 -156 -154 -510 -578
-156 -186 -287 -337 -292 -336 -298 54 -330 57 -539 57 -172 1 -239 -3 -373
-23 -89 -13 -164 -22 -166 -20 -2 2 -95 153 -206 334 -231 378 -332 535 -359
559 -30 27 -136 41 -191 26 -93 -25 -202 -186 -340 -502 -23 -54 -44 -98 -46
-98 -3 0 -75 32 -162 71 -568 255 -875 339 -1242 339 -348 0 -633 -65 -951
-216 -215 -102 -230 -104 -316 -36 -66 52 -119 133 -139 211 -28 110 6 272 97
456 62 127 148 241 285 379 269 270 480 388 765 430 251 37 674 1 932 -80 158
-50 280 -120 500 -287 162 -123 236 -163 332 -177 135 -22 220 4 274 83 73
109 84 216 37 357 -63 185 -144 309 -307 466 -360 346 -841 568 -1384 640
-107 14 -519 27 -580 18z m505 -425 c166 -16 275 -37 405 -81 196 -65 474
-199 551 -265 21 -17 23 -22 9 -17 -369 135 -663 187 -1060 187 -243 0 -351
-14 -515 -69 -284 -95 -531 -254 -760 -490 -353 -363 -502 -696 -487 -1088 8
-209 42 -302 161 -440 176 -205 509 -357 636 -291 15 8 63 40 107 71 189 136
377 201 694 240 395 49 749 -34 1327 -312 l172 -83 0 -38 c0 -21 -7 -81 -14
-133 -60 -392 -42 -1081 34 -1380 131 -514 402 -870 820 -1080 123 -62 235
-103 410 -150 207 -56 210 -58 210 -121 0 -119 -200 -2648 -240 -3036 -12
-116 -37 -265 -51 -311 -9 -28 -13 -31 -27 -20 -40 34 -110 256 -142 453 -59
372 -196 1368 -255 1865 -20 168 -42 337 -50 375 -31 160 -79 233 -192 290
-57 30 -60 30 -218 29 -167 0 -245 -13 -326 -54 -95 -49 -161 -140 -208 -287
-80 -253 -96 -425 -131 -1393 -34 -931 -50 -1231 -72 -1299 l-11 -34 -28 34
c-48 58 -89 154 -114 266 -44 197 -68 418 -145 1323 -57 670 -96 1091 -111
1195 -31 202 -203 478 -456 731 -287 285 -583 406 -814 334 -78 -24 -107 -43
-182 -117 -69 -68 -127 -179 -157 -299 -38 -152 -181 -1549 -275 -2679 -41
-500 -73 -745 -95 -745 -11 0 -76 149 -104 235 -155 485 -296 1582 -336 2610
-17 445 -33 1400 -27 1692 7 451 57 643 278 1070 113 217 118 240 71 314 -16
24 -89 107 -163 184 -196 205 -254 293 -318 485 -54 161 -73 298 -73 515 0
206 17 339 66 505 183 628 752 1119 1491 1285 188 42 433 51 715 24z m1842
-2276 c14 -16 91 -136 171 -268 269 -441 272 -445 389 -445 40 0 141 15 246
37 170 35 185 37 372 36 168 0 216 -4 345 -27 243 -45 307 -52 355 -37 53 16
106 69 343 348 203 239 277 318 287 306 10 -11 46 -246 69 -458 102 -905 -13
-1513 -354 -1874 -234 -248 -586 -389 -1015 -408 -495 -21 -923 155 -1169 482
-69 91 -163 284 -200 411 -115 394 -118 1031 -6 1524 33 146 93 350 111 378
19 28 25 28 56 -5z"/>
<path d="M5848 5906 c-175 -47 -266 -249 -187 -413 29 -61 117 -147 165 -163
54 -18 178 -7 236 20 54 25 122 95 146 148 10 24 16 66 16 117 0 154 -74 252
-221 290 -68 18 -92 18 -155 1z"/>
<path d="M6869 5904 c-162 -50 -248 -199 -205 -358 46 -170 215 -263 382 -210
84 26 166 108 190 189 35 124 -3 250 -99 327 -80 63 -174 81 -268 52z"/>
</g>
</svg>
