<?xml version="1.0" encoding="UTF-8"?>
<!DOCTYPE svg PUBLIC "-//W3C//DTD SVG 1.1//EN" "http://www.w3.org/Graphics/SVG/1.1/DTD/svg11.dtd">
<svg xmlns="http://www.w3.org/2000/svg" version="1.1" width="900px" height="720px" style="shape-rendering:geometricPrecision; text-rendering:geometricPrecision; image-rendering:optimizeQuality; fill-rule:evenodd; clip-rule:evenodd" xmlns:xlink="http://www.w3.org/1999/xlink">
<g><path style="opacity:0.033" fill="#e9e9e9" d="M 434.5,39.5 C 444.247,39.0796 453.914,39.5796 463.5,41C 474.113,46.2289 483.613,53.0622 492,61.5C 504.221,75.612 515.221,90.612 525,106.5C 539.612,132.056 553.445,158.056 566.5,184.5C 616.143,194.911 664.81,208.744 712.5,226C 726.402,231.951 739.735,238.951 752.5,247C 773.423,263.162 779.923,283.995 772,309.5C 767.605,322.955 761.605,335.622 754,347.5C 738.133,371.988 719.299,394.155 697.5,414C 686.333,423.833 675.167,433.667 664,443.5C 669.64,484.631 673.64,525.964 676,567.5C 676.82,585.221 676.154,602.887 674,620.5C 663.327,674.427 631.827,692.594 579.5,675C 533.157,657.622 489.323,635.456 448,608.5C 411.059,634.563 371.559,656.396 329.5,674C 264.817,698.583 230.317,676.416 226,607.5C 224.029,586.833 224.029,566.166 226,545.5C 229.438,512.331 233.771,479.331 239,446.5C 210.071,423.572 183.737,397.905 160,369.5C 144.71,350.845 132.71,330.178 124,307.5C 122.424,296.225 122.091,284.892 123,273.5C 124.196,268.777 126.196,264.443 129,260.5C 135.997,252.161 144.164,245.327 153.5,240C 176.168,228.167 199.835,218.834 224.5,212C 253.602,203.724 282.935,196.391 312.5,190C 332.885,154.049 355.385,119.549 380,86.5C 392.569,69.9649 407.403,55.7982 424.5,44C 428.042,42.7245 431.375,41.2245 434.5,39.5 Z"/></g>
<g><path style="opacity:0.974" fill="#060606" d="M 771.5,297.5 C 768.813,312.055 763.646,325.722 756,338.5C 738.562,366.29 717.729,391.457 693.5,414C 682.961,423.376 672.294,432.543 661.5,441.5C 659.254,436.143 658.421,430.477 659,424.5C 685.868,402.305 711.535,378.639 736,353.5C 751.848,336.673 763.681,318.007 771.5,297.5 Z"/></g>
<g><path style="opacity:0.978" fill="#070707" d="M 240.5,444.5 C 203.636,415.473 171.803,381.806 145,343.5C 135.435,329.036 128.602,313.369 124.5,296.5C 124.369,295.761 124.536,295.094 125,294.5C 128.239,305.723 133.239,316.057 140,325.5C 159.359,350.197 180.859,373.031 204.5,394C 218,405.5 231.5,417 245,428.5C 244.993,433.213 244.327,437.88 243,442.5C 242.583,443.756 241.75,444.423 240.5,444.5 Z"/></g>
<g><path style="opacity:0.993" fill="#3f3f3e" d="M 771.5,297.5 C 763.681,318.007 751.848,336.673 736,353.5C 711.535,378.639 685.868,402.305 659,424.5C 658.421,430.477 659.254,436.143 661.5,441.5C 664.882,468.464 668.049,495.464 671,522.5C 671.32,535.209 672.153,547.876 673.5,560.5C 674.133,583.905 670.967,606.905 664,629.5C 658.355,644.812 647.522,653.979 631.5,657C 622.5,657.667 613.5,657.667 604.5,657C 575.229,649.699 547.229,639.033 520.5,625C 495.977,612.244 471.977,598.744 448.5,584.5C 429.706,595.4 411.039,606.566 392.5,618C 369.666,631.057 345.999,642.39 321.5,652C 311.651,655.259 301.651,657.926 291.5,660C 261.158,665.423 241.325,653.59 232,624.5C 231.517,625.448 231.351,626.448 231.5,627.5C 229.594,617.062 228.427,606.395 228,595.5C 227.029,574.779 227.529,554.113 229.5,533.5C 230.957,528.402 231.624,523.069 231.5,517.5C 233.964,494.716 237.297,472.049 241.5,449.5C 241.408,447.742 241.075,446.076 240.5,444.5C 241.75,444.423 242.583,443.756 243,442.5C 244.327,437.88 244.993,433.213 245,428.5C 231.5,417 218,405.5 204.5,394C 180.859,373.031 159.359,350.197 140,325.5C 133.239,316.057 128.239,305.723 125,294.5C 124.536,295.094 124.369,295.761 124.5,296.5C 120.948,278.07 126.615,262.903 141.5,251C 152.565,242.798 164.565,236.131 177.5,231C 222.031,214.222 267.698,201.222 314.5,192C 337.742,149.663 364.575,109.83 395,72.5C 406.257,59.2289 419.757,49.0623 435.5,42C 449.201,38.8071 461.868,41.1405 473.5,49C 483.297,56.4629 492.13,64.9629 500,74.5C 525.346,109.512 546.846,146.846 564.5,186.5C 610.765,196.867 656.431,209.367 701.5,224C 720.422,230.961 738.089,240.294 754.5,252C 769.001,264.018 774.668,279.184 771.5,297.5 Z"/></g>
<g><path style="opacity:0.996" fill="#bea71b" d="M 206.5,244.5 C 202.183,246.94 197.517,248.607 192.5,249.5C 196.817,247.06 201.483,245.393 206.5,244.5 Z"/></g>
<g><path style="opacity:0.996" fill="#ab971f" d="M 258.5,228.5 C 256.485,229.924 254.152,230.59 251.5,230.5C 253.515,229.076 255.848,228.41 258.5,228.5 Z"/></g>
<g><path style="opacity:0.996" fill="#b19d1c" d="M 286.5,221.5 C 284.485,222.924 282.152,223.59 279.5,223.5C 281.515,222.076 283.848,221.41 286.5,221.5 Z"/></g>
<g><path style="opacity:0.996" fill="#a49121" d="M 326.5,212.5 C 324.485,213.924 322.152,214.59 319.5,214.5C 321.515,213.076 323.848,212.41 326.5,212.5 Z"/></g>
<g><path style="opacity:0.998" fill="#fddb00" d="M 736.5,266.5 C 735.72,274.674 733.22,282.34 729,289.5C 723.099,298.737 716.432,307.404 709,315.5C 680.449,343.011 649.282,367.011 615.5,387.5C 614.359,389.421 614.192,391.421 615,393.5C 626.237,433.886 634.57,474.886 640,516.5C 640.667,532.5 640.667,548.5 640,564.5C 638.068,576.649 632.902,587.149 624.5,596C 613.965,602.567 602.632,604.234 590.5,601C 585.469,599.794 580.469,598.46 575.5,597C 562.159,592.164 549.159,586.498 536.5,580C 506.612,564.141 477.112,547.641 448,530.5C 412.593,555.565 375.426,577.731 336.5,597C 328.647,599.199 320.981,601.866 313.5,605C 301.437,608.008 289.437,608.008 277.5,605C 267.282,598.754 261.449,589.587 260,577.5C 257.441,551.981 258.775,526.648 264,501.5C 270.82,468.057 278.653,434.89 287.5,402C 281.021,395.404 273.688,389.737 265.5,385C 236.562,364.072 210.062,340.238 186,313.5C 177.39,303.55 170.39,292.55 165,280.5C 163.483,273.233 164.65,266.567 168.5,260.5C 175.953,255.775 183.953,252.109 192.5,249.5C 197.517,248.607 202.183,246.94 206.5,244.5C 221.058,238.771 236.058,234.104 251.5,230.5C 254.152,230.59 256.485,229.924 258.5,228.5C 265.33,226.226 272.33,224.559 279.5,223.5C 282.152,223.59 284.485,222.924 286.5,221.5C 297.34,218.532 308.34,216.198 319.5,214.5C 322.152,214.59 324.485,213.924 326.5,212.5C 327.675,212.719 328.675,212.386 329.5,211.5C 350.17,173.473 373.337,137.14 399,102.5C 410.246,87.919 423.413,75.419 438.5,65C 448.149,61.138 456.816,62.8046 464.5,70C 474.055,78.5549 482.555,88.0549 490,98.5C 512.541,132.909 532.374,168.909 549.5,206.5C 602.772,216.65 654.772,231.15 705.5,250C 716.304,254.654 726.637,260.154 736.5,266.5 Z"/></g>
<g><path style="opacity:0.999" fill="#fef200" d="M 710.5,276.5 C 560.162,269.802 416.495,297.302 279.5,359C 278.207,359.49 276.873,359.657 275.5,359.5C 249.026,339.539 223.86,317.872 200,294.5C 195.083,288.705 190.417,282.705 186,276.5C 184.632,273.262 184.299,269.928 185,266.5C 188.552,263.281 192.385,260.448 196.5,258C 209.211,252.874 222.211,248.541 235.5,245C 274.096,236.296 312.763,228.13 351.5,220.5C 370.295,185.577 390.129,151.244 411,117.5C 417.281,108.218 423.948,99.2183 431,90.5C 434.581,86.2477 438.748,82.7477 443.5,80C 446.964,79.1834 450.298,79.5167 453.5,81C 460.81,87.9719 466.977,95.8052 472,104.5C 491.473,140.777 509.306,177.777 525.5,215.5C 579.194,225.736 632.194,238.57 684.5,254C 694.281,257.702 703.448,262.535 712,268.5C 712.885,271.538 712.385,274.205 710.5,276.5 Z"/></g>
<g><path style="opacity:0.996" fill="#c2951f" d="M 640.5,460.5 C 642.054,464.567 642.72,468.9 642.5,473.5C 640.946,469.433 640.28,465.1 640.5,460.5 Z"/></g>
<g><path style="opacity:0.996" fill="#a98525" d="M 645.5,497.5 C 647.012,502.929 647.679,508.596 647.5,514.5C 646.263,509.04 645.596,503.373 645.5,497.5 Z"/></g>
<g><path style="opacity:0.996" fill="#fcba0b" d="M 168.5,260.5 C 164.65,266.567 163.483,273.233 165,280.5C 170.39,292.55 177.39,303.55 186,313.5C 210.062,340.238 236.562,364.072 265.5,385C 273.688,389.737 281.021,395.404 287.5,402C 278.653,434.89 270.82,468.057 264,501.5C 258.775,526.648 257.441,551.981 260,577.5C 261.449,589.587 267.282,598.754 277.5,605C 289.437,608.008 301.437,608.008 313.5,605C 320.981,601.866 328.647,599.199 336.5,597C 375.426,577.731 412.593,555.565 448,530.5C 477.112,547.641 506.612,564.141 536.5,580C 549.159,586.498 562.159,592.164 575.5,597C 580.469,598.46 585.469,599.794 590.5,601C 602.632,604.234 613.965,602.567 624.5,596C 632.902,587.149 638.068,576.649 640,564.5C 640.667,548.5 640.667,532.5 640,516.5C 634.57,474.886 626.237,433.886 615,393.5C 614.192,391.421 614.359,389.421 615.5,387.5C 649.282,367.011 680.449,343.011 709,315.5C 716.432,307.404 723.099,298.737 729,289.5C 733.22,282.34 735.72,274.674 736.5,266.5C 740.339,269.498 743.839,272.831 747,276.5C 749.897,282.968 750.23,289.634 748,296.5C 739.335,313.828 728.335,329.494 715,343.5C 689.487,369.356 662.487,393.356 634,415.5C 636.406,430.404 638.572,445.404 640.5,460.5C 640.28,465.1 640.946,469.433 642.5,473.5C 644.098,481.405 645.098,489.405 645.5,497.5C 645.596,503.373 646.263,509.04 647.5,514.5C 650.691,542.773 651.191,571.106 649,599.5C 647.724,609.386 644.724,618.719 640,627.5C 637.736,630.433 634.902,632.6 631.5,634C 623.245,635.572 614.911,635.905 606.5,635C 590.301,631.045 574.634,625.712 559.5,619C 520.822,600.918 483.656,580.418 448,557.5C 433.432,566.535 418.932,575.702 404.5,585C 377.13,601.518 348.796,616.185 319.5,629C 309.589,633.153 299.256,635.986 288.5,637.5C 280.685,637.924 273.018,637.257 265.5,635.5C 263.284,634.797 261.451,633.464 260,631.5C 255.041,623.907 252.041,615.574 251,606.5C 248.902,581.805 249.235,557.138 252,532.5C 253.213,521.151 254.547,509.818 256,498.5C 259.907,472.479 264.74,446.646 270.5,421C 236.503,393.677 204.336,364.177 174,332.5C 166.513,323.524 159.513,314.191 153,304.5C 147.899,296.872 145.899,288.539 147,279.5C 152.149,270.849 159.316,264.516 168.5,260.5 Z"/></g>
<g><path style="opacity:0.998" fill="#feea00" d="M 597.5,388.5 C 606.589,434.039 614.089,480.039 620,526.5C 620.667,541.167 620.667,555.833 620,570.5C 617.132,581.507 610.299,584.673 599.5,580C 587.867,575.187 576.2,570.353 564.5,565.5C 544.343,554.589 524.343,543.422 504.5,532C 485.089,520.212 465.922,508.045 447,495.5C 412.388,520.18 376.555,543.013 339.5,564C 326.859,570.821 313.859,576.821 300.5,582C 296.5,582.5 292.5,583 288.5,583.5C 286.307,583.674 284.473,583.007 283,581.5C 282.333,579.5 281.667,577.5 281,575.5C 280.833,569.667 280.667,563.833 280.5,558C 280.337,548.951 281.004,540.117 282.5,531.5C 282.34,533.199 282.506,534.866 283,536.5C 383.905,481.963 487.739,433.797 594.5,392C 596.426,391.578 597.426,390.411 597.5,388.5 Z"/></g>
<g><path style="opacity:0.995" fill="#fffac5" d="M 479.5,453.5 C 488.568,452.6 492.401,456.6 491,465.5C 486.874,469.958 482.208,470.625 477,467.5C 474.541,462.203 475.375,457.536 479.5,453.5 Z"/></g>
<g><path style="opacity:1" fill="#fef200" d="M 635.5,350.5 C 622.855,360.16 610.188,369.827 597.5,379.5C 596.357,382.498 596.357,385.498 597.5,388.5C 597.426,390.411 596.426,391.578 594.5,392C 487.739,433.797 383.905,481.963 283,536.5C 282.506,534.866 282.34,533.199 282.5,531.5C 283.885,515.755 285.718,500.088 288,484.5C 290.612,467.945 293.778,451.612 297.5,435.5C 408.291,400.719 520.624,371.719 634.5,348.5C 635.298,348.957 635.631,349.624 635.5,350.5 Z"/></g>
<g><path style="opacity:0.999" fill="#feea00" d="M 710.5,276.5 C 708.937,280.618 706.604,284.284 703.5,287.5C 682.405,310.349 659.739,331.349 635.5,350.5C 635.631,349.624 635.298,348.957 634.5,348.5C 520.624,371.719 408.291,400.719 297.5,435.5C 300.997,418.855 304.163,402.189 307,385.5C 296.385,377.059 285.885,368.392 275.5,359.5C 276.873,359.657 278.207,359.49 279.5,359C 416.495,297.302 560.162,269.802 710.5,276.5 Z"/></g>
<g><path style="opacity:1" fill="#fefac6" d="M 377.5,369.5 C 388.49,367.992 393.324,372.658 392,383.5C 388.629,388.85 383.796,390.683 377.5,389C 369.555,382.503 369.555,376.003 377.5,369.5 Z"/></g>
<g><path style="opacity:0.995" fill="#fefac8" d="M 469.5,311.5 C 485.007,311.858 490.841,319.524 487,334.5C 479.275,343.025 470.941,343.692 462,336.5C 456.629,325.59 459.129,317.257 469.5,311.5 Z"/></g>
<g><path style="opacity:0.996" fill="#fffac4" d="M 554.5,303.5 C 562.545,303.048 566.378,306.714 566,314.5C 563.103,319.155 558.937,320.655 553.5,319C 547.953,313.45 548.286,308.284 554.5,303.5 Z"/></g>
<g><path style="opacity:0.996" fill="#fef400" d="M 576.5,286.5 C 585.754,288.001 589.254,293.334 587,302.5C 583.723,308.109 578.89,309.942 572.5,308C 566.065,303.313 564.898,297.479 569,290.5C 571.255,288.501 573.755,287.168 576.5,286.5 Z"/></g>
<g><path style="opacity:0.612" fill="#7a7a7a" d="M 231.5,517.5 C 231.624,523.069 230.957,528.402 229.5,533.5C 229.527,527.949 230.194,522.616 231.5,517.5 Z"/></g>
<g><path style="opacity:0.985" fill="#050505" d="M 673.5,560.5 C 676.115,587.673 673.615,614.34 666,640.5C 654.615,670.117 633.115,682.617 601.5,678C 585.079,674.23 569.079,669.23 553.5,663C 517.188,646.097 482.022,627.264 448,606.5C 418.49,625.171 388.323,642.671 357.5,659C 346.536,663.873 335.536,668.54 324.5,673C 314.758,676.638 304.758,679.138 294.5,680.5C 284.744,680.863 275.077,680.196 265.5,678.5C 251.364,671.965 241.531,661.299 236,646.5C 233.774,640.326 232.274,633.993 231.5,627.5C 231.351,626.448 231.517,625.448 232,624.5C 241.325,653.59 261.158,665.423 291.5,660C 301.651,657.926 311.651,655.259 321.5,652C 345.999,642.39 369.666,631.057 392.5,618C 411.039,606.566 429.706,595.4 448.5,584.5C 471.977,598.744 495.977,612.244 520.5,625C 547.229,639.033 575.229,649.699 604.5,657C 613.5,657.667 622.5,657.667 631.5,657C 647.522,653.979 658.355,644.812 664,629.5C 670.967,606.905 674.133,583.905 673.5,560.5 Z"/></g>
<g><path style="opacity:0.996" fill="#be921d" d="M 265.5,635.5 C 273.018,637.257 280.685,637.924 288.5,637.5C 282.681,638.653 276.681,638.819 270.5,638C 268.509,637.626 266.842,636.793 265.5,635.5 Z"/></g>
<g><path style="opacity:0.494" fill="#3a3a3a" d="M 265.5,678.5 C 275.077,680.196 284.744,680.863 294.5,680.5C 287.345,681.655 280.012,681.822 272.5,681C 269.896,680.61 267.562,679.776 265.5,678.5 Z"/></g>
</svg>
